<?xml version="1.0" standalone="no"?>
<!DOCTYPE svg PUBLIC "-//W3C//DTD SVG 20010904//EN"
 "http://www.w3.org/TR/2001/REC-SVG-20010904/DTD/svg10.dtd">
<svg version="1.0" xmlns="http://www.w3.org/2000/svg"
 width="120.000000pt" height="120.000000pt" viewBox="0 0 120.000000 120.000000"
 preserveAspectRatio="xMidYMid meet">
<metadata>
Created by potrace 1.11, written by Peter Selinger 2001-2013
</metadata>
<g transform="translate(0.000000,120.000000) scale(0.100000,-0.100000)"
fill="#000000" stroke="none">
<path d="M548 969 c-63 -17 -125 -73 -142 -127 -4 -12 -13 -22 -19 -23 -7 0
-79 -1 -160 -1 -127 -1 -150 -4 -160 -18 -17 -25 -16 -545 2 -563 17 -17 1036
-18 1059 -1 14 10 16 48 17 283 0 168 -4 276 -10 285 -8 10 -42 13 -159 12
-148 -1 -186 6 -186 36 0 35 -85 104 -140 115 -46 9 -78 9 -102 2z m140 -65
c28 -18 50 -40 67 -69 6 -9 21 -17 34 -18 23 -1 23 -4 19 -67 -5 -67 -36 -142
-84 -207 -13 -17 -24 -34 -24 -37 0 -4 -11 -19 -24 -34 -14 -15 -35 -39 -48
-55 l-24 -27 -42 47 c-53 60 -115 143 -107 143 4 0 -2 12 -13 28 -31 45 -53
118 -50 164 3 39 6 43 28 42 17 0 24 -5 22 -15 -10 -37 -9 -47 3 -83 61 -178
324 -138 321 49 l-1 50 -145 2 c-177 1 -170 1 -170 12 0 17 49 68 82 85 40 20
117 15 156 -10z"/>
</g>
</svg>
